<?xml version="1.0" standalone="no"?>
<!DOCTYPE svg PUBLIC "-//W3C//DTD SVG 20010904//EN"
 "http://www.w3.org/TR/2001/REC-SVG-20010904/DTD/svg10.dtd">
<svg version="1.0" xmlns="http://www.w3.org/2000/svg"
 width="512.000000pt" height="512.000000pt" viewBox="0 0 512.000000 512.000000"
 preserveAspectRatio="xMidYMid meet">

<g transform="translate(0.000000,512.000000) scale(0.100000,-0.100000)"
fill="#000000" stroke="none">
<path d="M2370 5113 c-379 -36 -661 -116 -980 -278 -378 -193 -717 -497 -965
-865 -104 -156 -232 -419 -294 -605 -49 -150 -89 -321 -113 -490 -17 -118 -17
-512 0 -630 42 -295 120 -553 242 -800 137 -280 272 -468 494 -691 221 -220
412 -357 681 -489 188 -92 309 -137 500 -185 500 -126 1002 -102 1490 71 149
53 407 182 540 271 365 243 667 578 866 963 181 348 271 694 286 1090 15 426
-73 832 -263 1214 -124 250 -263 447 -458 648 -216 224 -428 378 -711 518
-296 146 -572 225 -900 255 -102 9 -333 11 -415 3z m951 -926 c101 -67 79
-205 -39 -237 -29 -7 -242 -10 -711 -8 -659 3 -670 3 -698 24 -84 62 -78 183
12 228 26 13 123 16 716 16 l686 0 34 -23z m401 -440 c106 -42 196 -158 205
-266 4 -49 -127 -2151 -142 -2286 -12 -106 -91 -211 -193 -258 l-47 -22 -985
0 -985 0 -47 22 c-102 47 -181 152 -193 258 -15 135 -146 2237 -142 2286 6 71
43 144 100 196 106 98 26 92 1287 90 1037 -2 1098 -3 1142 -20z"/>
<path d="M1466 3478 c-12 -20 -5 -160 59 -1146 50 -766 77 -1127 85 -1137 19
-22 1881 -22 1900 0 8 9 35 373 85 1137 64 985 71 1126 59 1146 l-14 22 -1080
0 -1080 0 -14 -22z m571 -314 c13 -8 31 -26 40 -41 17 -25 18 -78 18 -783 0
-712 -1 -757 -18 -783 -24 -37 -75 -67 -112 -67 -44 0 -96 31 -117 71 -17 32
-18 76 -18 772 0 785 0 777 48 820 41 37 110 42 159 11z m573 10 c23 -10 48
-29 60 -49 20 -32 20 -47 20 -787 l0 -755 -23 -34 c-15 -22 -38 -39 -65 -49
-37 -13 -47 -13 -84 0 -27 10 -50 27 -65 49 l-23 34 0 754 c0 848 -5 794 75
833 48 24 54 24 105 4z m620 -13 c14 -10 33 -33 42 -52 17 -31 18 -89 18 -774
0 -698 -1 -742 -18 -774 -35 -65 -118 -89 -179 -51 -72 44 -68 -7 -71 795 -2
396 0 739 3 762 15 102 123 151 205 94z"/>
</g>
</svg>
