<?xml version="1.0" standalone="no"?>
<!DOCTYPE svg PUBLIC "-//W3C//DTD SVG 20010904//EN"
 "http://www.w3.org/TR/2001/REC-SVG-20010904/DTD/svg10.dtd">
<svg version="1.0" xmlns="http://www.w3.org/2000/svg"
 width="512.000000pt" height="512.000000pt" viewBox="0 0 512.000000 512.000000"
 preserveAspectRatio="xMidYMid meet">

<g transform="translate(0.000000,512.000000) scale(0.100000,-0.100000)"
fill="#000000" stroke="none">
<path d="M2315 5109 c-800 -83 -1501 -518 -1927 -1196 -487 -774 -516 -1777
-75 -2578 200 -364 487 -676 841 -913 238 -159 600 -311 876 -366 214 -43 295
-51 530 -51 236 0 333 10 532 51 879 183 1616 843 1897 1699 93 282 126 493
126 805 0 301 -32 513 -116 775 -124 390 -330 728 -622 1024 -399 404 -893
653 -1462 737 -123 18 -478 26 -600 13z m1560 -1033 c204 -101 281 -345 174
-546 -23 -44 -228 -254 -997 -1022 l-967 -967 -307 -95 c-169 -53 -318 -96
-332 -96 -30 0 -82 42 -90 73 -3 14 29 159 79 352 l84 329 963 964 c530 530
981 975 1003 990 70 45 140 63 233 58 72 -3 95 -9 157 -40z m-688 -2901 c29
-20 46 -75 34 -107 -5 -14 -22 -35 -37 -47 l-27 -21 -1029 0 c-1127 0 -1072
-3 -1098 59 -16 39 -5 86 27 111 25 20 39 20 1067 20 911 0 1044 -2 1063 -15z"/>
<path d="M3589 3891 c-24 -15 -60 -45 -79 -65 l-34 -36 144 -145 145 -145 52
52 c65 64 83 101 83 167 0 59 -23 112 -67 153 -38 36 -73 48 -142 48 -46 0
-66 -6 -102 -29z"/>
<path d="M2514 2827 l-821 -822 -51 -204 c-28 -113 -50 -206 -49 -207 1 -1 88
25 192 58 l190 59 825 824 825 825 -145 145 -145 145 -821 -823z"/>
</g>
</svg>
