<?xml version="1.0" standalone="no"?>
<!DOCTYPE svg PUBLIC "-//W3C//DTD SVG 20010904//EN"
 "http://www.w3.org/TR/2001/REC-SVG-20010904/DTD/svg10.dtd">
<svg version="1.0" xmlns="http://www.w3.org/2000/svg"
 width="448.000000pt" height="448.000000pt" viewBox="0 0 448.000000 448.000000"
 preserveAspectRatio="xMidYMid meet">

<g transform="translate(0.000000,448.000000) scale(0.100000,-0.100000)"
fill="#000000" stroke="none">
<path d="M369 4467 c-33 -25 -39 -55 -39 -186 l0 -131 -131 0 c-131 0 -161 -6
-186 -39 -20 -26 -15 -70 12 -96 23 -24 29 -25 165 -25 l140 0 0 -225 0 -225
-131 0 c-131 0 -161 -6 -186 -39 -20 -26 -15 -70 12 -96 23 -24 29 -25 165
-25 l140 0 0 -225 0 -225 -130 0 c-167 0 -200 -14 -200 -86 0 -14 11 -36 25
-49 23 -24 29 -25 165 -25 l140 0 0 -225 0 -225 -140 0 c-136 0 -142 -1 -165
-25 -33 -32 -33 -78 0 -110 23 -24 29 -25 165 -25 l140 0 0 -225 0 -225 -140
0 c-136 0 -142 -1 -165 -25 -27 -26 -32 -70 -12 -96 25 -33 55 -39 186 -39
l131 0 0 -225 0 -225 -140 0 c-136 0 -142 -1 -165 -25 -27 -26 -32 -70 -12
-96 25 -33 55 -39 186 -39 l131 0 0 -225 0 -225 -140 0 c-136 0 -142 -1 -165
-25 -27 -26 -32 -70 -12 -96 25 -33 55 -39 186 -39 l131 0 0 -130 c0 -139 8
-171 47 -189 37 -17 62 -13 88 14 24 23 25 29 25 165 l0 140 225 0 225 0 0
-131 c0 -131 6 -161 39 -186 26 -20 70 -15 96 12 24 23 25 29 25 165 l0 140
225 0 225 0 0 -131 c0 -131 6 -161 39 -186 26 -20 70 -15 96 12 24 23 25 29
25 165 l0 140 225 0 225 0 0 -140 c0 -136 1 -142 25 -165 32 -33 78 -33 110 0
24 23 25 29 25 165 l0 140 225 0 225 0 0 -140 c0 -136 1 -142 25 -165 26 -27
70 -32 96 -12 33 25 39 55 39 186 l0 131 225 0 225 0 0 -140 c0 -136 1 -142
25 -165 26 -27 70 -32 96 -12 33 25 39 55 39 186 l0 131 225 0 225 0 0 -140
c0 -136 1 -142 25 -165 26 -27 51 -31 88 -14 39 18 47 50 47 189 l0 130 130 0
c139 0 171 8 189 47 17 37 13 62 -14 88 -23 24 -29 25 -165 25 l-140 0 0 225
0 225 131 0 c131 0 161 6 186 39 20 26 15 70 -12 96 -23 24 -29 25 -165 25
l-140 0 0 225 0 225 131 0 c131 0 161 6 186 39 20 26 15 70 -12 96 -23 24 -29
25 -165 25 l-140 0 0 225 0 225 140 0 c136 0 142 1 165 25 16 15 25 36 25 55
0 19 -9 40 -25 55 -23 24 -29 25 -165 25 l-140 0 0 225 0 225 140 0 c136 0
142 1 165 25 27 26 32 70 12 96 -25 33 -55 39 -186 39 l-131 0 0 225 0 225
140 0 c136 0 142 1 165 25 27 26 32 70 12 96 -25 33 -55 39 -186 39 l-131 0 0
225 0 225 140 0 c136 0 142 1 165 25 27 26 31 51 14 88 -18 39 -50 47 -189 47
l-130 0 0 131 c0 131 -6 161 -39 186 -26 20 -70 15 -96 -12 -24 -23 -25 -29
-25 -165 l0 -140 -225 0 -225 0 0 131 c0 131 -6 161 -39 186 -26 20 -70 15
-96 -12 -24 -23 -25 -29 -25 -165 l0 -140 -225 0 -225 0 0 131 c0 131 -6 161
-39 186 -26 20 -70 15 -96 -12 -24 -23 -25 -29 -25 -165 l0 -140 -225 0 -225
0 0 140 c0 136 -1 142 -25 165 -15 16 -36 25 -55 25 -19 0 -40 -9 -55 -25 -24
-23 -25 -29 -25 -165 l0 -140 -225 0 -225 0 0 140 c0 136 -1 142 -25 165 -13
14 -35 25 -49 25 -72 0 -86 -33 -86 -200 l0 -130 -225 0 -225 0 0 140 c0 136
-1 142 -25 165 -26 27 -70 32 -96 12 -33 -25 -39 -55 -39 -186 l0 -131 -225 0
-225 0 0 140 c0 136 -1 142 -25 165 -26 27 -70 32 -96 12z m1024 -728 c49 -22
61 -86 22 -124 l-24 -25 -251 0 -250 0 0 -250 0 -251 -25 -24 c-26 -27 -51
-31 -88 -14 -44 20 -47 43 -47 350 l0 291 29 29 29 29 291 0 c191 0 298 -4
314 -11z m2328 -18 l29 -29 0 -291 c0 -307 -3 -330 -47 -350 -37 -17 -62 -13
-88 14 l-25 24 0 251 0 250 -239 0 c-132 0 -247 3 -256 6 -24 10 -46 60 -39
89 3 14 18 34 31 45 24 19 42 20 315 20 l290 0 29 -29z m-1221 -310 c464 -106
807 -455 917 -933 23 -101 23 -373 0 -476 -56 -244 -161 -437 -331 -608 -171
-170 -364 -275 -608 -331 -103 -23 -375 -23 -476 0 -367 85 -662 307 -824 622
-100 195 -132 332 -132 555 0 113 4 178 18 240 76 353 299 650 610 816 135 71
261 112 431 138 68 10 312 -4 395 -23z m-1635 -1996 l25 -24 0 -251 0 -250
250 0 251 0 24 -25 c27 -26 31 -51 14 -88 -20 -44 -43 -47 -350 -47 l-291 0
-29 29 -29 29 0 292 c0 296 3 319 39 347 26 20 70 15 96 -12z m2846 12 c36
-28 39 -51 39 -347 l0 -292 -29 -29 -29 -29 -292 0 c-296 0 -319 3 -347 39
-20 26 -15 70 12 96 l24 25 251 0 250 0 0 250 0 251 25 24 c26 27 70 32 96 12z"/>
<path d="M2068 3265 c-370 -62 -688 -330 -809 -683 -75 -216 -76 -460 -4 -671
118 -347 414 -611 770 -687 280 -60 586 4 820 171 71 50 191 171 240 239 88
124 161 308 184 463 64 428 -168 873 -558 1068 -202 101 -427 136 -643 100z
m227 -270 c20 -19 25 -34 25 -73 l0 -48 55 -23 c121 -50 211 -172 222 -301 5
-53 3 -61 -20 -84 -55 -55 -124 -24 -138 63 -11 73 -38 121 -88 156 -37 26
-51 30 -109 30 -80 0 -129 -25 -170 -88 -23 -34 -27 -52 -27 -108 0 -59 4 -73
30 -110 39 -55 88 -79 181 -90 143 -16 255 -92 311 -213 24 -52 28 -74 28
-146 0 -72 -4 -94 -29 -147 -36 -78 -111 -151 -188 -183 l-58 -24 0 -48 c0
-60 -31 -98 -80 -98 -49 0 -80 38 -80 98 l0 48 -55 23 c-121 50 -211 172 -222
301 -5 53 -3 61 20 84 55 55 124 24 138 -62 16 -107 76 -174 165 -188 176 -26
298 171 195 313 -37 50 -86 73 -178 84 -142 16 -254 93 -310 213 -24 52 -28
74 -28 146 0 72 4 94 29 147 36 78 111 151 189 183 l57 24 0 48 c0 60 31 98
80 98 19 0 40 -9 55 -25z"/>
</g>
</svg>
