<?xml version="1.0" standalone="no"?>
<!DOCTYPE svg PUBLIC "-//W3C//DTD SVG 20010904//EN"
 "http://www.w3.org/TR/2001/REC-SVG-20010904/DTD/svg10.dtd">
<svg version="1.0" xmlns="http://www.w3.org/2000/svg"
 width="512.000000pt" height="512.000000pt" viewBox="0 0 512.000000 512.000000"
 preserveAspectRatio="xMidYMid meet">

<g transform="translate(0.000000,512.000000) scale(0.100000,-0.100000)"
fill="#000000" stroke="none">
<path d="M2321 5110 c-497 -48 -990 -251 -1376 -565 -114 -92 -294 -274 -384
-387 -229 -287 -417 -675 -495 -1023 -49 -218 -60 -325 -60 -575 0 -250 11
-357 60 -575 79 -355 272 -749 509 -1040 92 -114 274 -294 387 -384 287 -229
675 -417 1023 -495 218 -49 325 -60 575 -60 250 0 357 11 575 60 261 58 603
204 828 353 389 259 688 599 893 1016 125 255 196 484 241 775 24 161 24 539
0 700 -45 291 -116 520 -241 775 -134 272 -283 480 -498 692 -211 209 -404
346 -673 478 -252 124 -486 197 -765 240 -126 19 -468 27 -599 15z m474 -430
c656 -74 1243 -450 1591 -1020 275 -452 369 -998 263 -1530 -113 -567 -480
-1085 -989 -1396 -452 -275 -998 -369 -1530 -263 -567 113 -1085 480 -1396
989 -156 258 -260 562 -294 865 -22 200 -10 457 31 665 113 567 480 1085 989
1396 251 153 562 260 850 293 107 12 379 13 485 1z"/>
<path d="M1437 3616 c-66 -18 -104 -52 -137 -121 -25 -52 -25 -109 1 -165 27
-60 45 -79 104 -106 l50 -24 1105 0 c1089 0 1106 1 1150 21 60 27 79 45 106
104 40 85 24 172 -42 239 -65 65 11 61 -1194 63 -867 1 -1105 -1 -1143 -11z"/>
<path d="M1405 2751 c-72 -32 -125 -113 -125 -191 0 -78 53 -159 125 -191 38
-18 98 -19 1155 -19 1057 0 1117 1 1155 19 72 32 125 113 125 191 0 78 -53
159 -125 191 -38 18 -98 19 -1155 19 -1057 0 -1117 -1 -1155 -19z"/>
<path d="M1405 1896 c-27 -13 -58 -32 -67 -42 -29 -33 -58 -107 -58 -149 0
-79 65 -171 139 -197 53 -19 2229 -19 2282 0 74 26 138 118 139 197 0 44 -36
131 -66 157 -11 9 -40 26 -64 37 -44 20 -61 21 -1150 21 l-1105 0 -50 -24z"/>
</g>
</svg>
