<svg width="1000" height="600" xmlns="http://www.w3.org/2000/svg"><defs><linearGradient id="a" gradientTransform="rotate(90)"><stop offset="5%" stop-color="#fd677a"/><stop offset="95%" stop-color="#fd8d9b"/></linearGradient><linearGradient id="b" gradientTransform="rotate(90)"><stop offset="5%" stop-color="#fc8b8f"/><stop offset="95%" stop-color="#fca8ab"/></linearGradient><linearGradient id="c" gradientTransform="rotate(90)"><stop offset="5%" stop-color="#fba79e"/><stop offset="95%" stop-color="#fcbdb6"/></linearGradient><linearGradient id="d" gradientTransform="rotate(90)"><stop offset="5%" stop-color="#fabaa5"/><stop offset="95%" stop-color="#fbcbbb"/></linearGradient><linearGradient id="e" gradientTransform="rotate(90)"><stop offset="5%" stop-color="#f9cdad"/><stop offset="95%" stop-color="#fad9c1"/></linearGradient><linearGradient id="f" gradientTransform="rotate(90)"><stop offset="5%" stop-color="#e5cbab"/><stop offset="95%" stop-color="#ebd8c0"/></linearGradient><linearGradient id="g" gradientTransform="rotate(90)"><stop offset="5%" stop-color="#d2c9aa"/><stop offset="95%" stop-color="#ddd6bf"/></linearGradient><linearGradient id="h" gradientTransform="rotate(90)"><stop offset="5%" stop-color="#bac3a6"/><stop offset="95%" stop-color="#cbd2bc"/></linearGradient><linearGradient id="i" gradientTransform="rotate(90)"><stop offset="5%" stop-color="#9fb9a1"/><stop offset="95%" stop-color="#b7cab8"/></linearGradient><linearGradient id="j" gradientTransform="rotate(90)"><stop offset="5%" stop-color="#83af9b"/><stop offset="95%" stop-color="#a2c3b4"/></linearGradient></defs><path fill="#fe4365" d="M0 0h1000v600H0z"/><path d="M0 54c38.268.975 76.536 1.95 116 1s80.125-3.822 115-1 63.965 11.34 97 9 70.014-15.538 111-20c40.986-4.462 85.978-.187 121 1 35.022 1.187 60.075-.715 98-1 37.925-.285 88.722 1.047 125 6 36.278 4.953 58.036 13.526 98 13 39.964-.526 98.132-10.15 121-13 22.868-2.85 10.434 1.075 38 5l-40 546H0Z" fill="url(#a)"/><path d="M0 109c32.663-6.412 65.326-12.823 100-10 34.674 2.823 71.36 14.882 115 16 43.64 1.118 94.238-8.704 130-9 35.762-.296 56.69 8.936 91 14s82.002 5.962 124 0c41.998-5.962 78.303-18.783 111-18 32.697.783 61.785 15.169 97 16 35.215.831 76.558-11.892 124-14 47.442-2.108 100.983 6.398 120 9 19.017 2.602 3.508-.699 28-4l-40 491H0Z" fill="url(#b)"/><path d="M0 163c41.304 2.96 82.609 5.919 118 7 35.391 1.081 64.869.284 102-5s81.917-15.055 120-12c38.083 3.055 69.464 18.937 107 18 37.536-.937 81.226-18.694 114-19 32.774-.306 54.63 16.838 93 19 38.37 2.162 93.254-10.658 133-17 39.746-6.342 64.355-6.208 100-1 35.645 5.208 82.327 15.488 103 18 20.673 2.512 15.336-2.744 50-8l-40 437H0Z" fill="url(#c)"/><path d="M0 218c41.31.41 82.622.82 117 1 34.378.18 61.824.132 97 1s78.081 2.653 120-1 82.851-12.742 119-12c36.149.742 67.514 11.316 104 14 36.486 2.684 78.094-2.521 115-2 36.906.521 69.109 6.769 104 5 34.891-1.769 72.47-11.553 116-11 43.53.553 93.008 11.444 112 14 18.992 2.556 7.496-3.222 36-9l-40 382H0Z" fill="url(#d)"/><path d="M0 272c43.558 1.218 87.116 2.436 122 4s61.095 3.475 98 2 84.503-6.335 119-9 55.892-3.135 93 1 89.93 12.876 133 10c43.07-2.876 76.389-17.367 108-18 31.611-.633 61.514 12.593 94 18s67.554 2.994 110 1c42.446-1.994 92.27-3.57 114-5 21.73-1.43 15.365-2.715 49-4l-40 328H0Z" fill="url(#e)"/><path d="M0 327c44.38-5.55 88.759-11.1 121-10 32.241 1.1 52.344 8.852 88 10 35.656 1.148 86.864-4.308 128-4 41.136.308 72.199 6.38 105 11s67.341 7.785 105 3c37.659-4.785 78.436-17.52 116-16 37.564 1.52 71.914 17.294 111 17 39.086-.294 82.908-16.656 124-19 41.092-2.344 79.455 9.33 96 13s11.273-.665 46-5l-40 273H0Z" fill="url(#f)"/><path d="M0 381c41.065-5.94 82.13-11.88 118-10 35.87 1.88 66.547 11.58 100 12 33.453.42 69.682-8.443 106-7 36.318 1.443 72.724 13.19 109 12 36.276-1.19 72.423-15.316 114-18 41.577-2.684 88.586 6.074 126 10s65.235 3.022 102 4c36.765.978 82.475 3.84 124 3 41.525-.84 78.864-5.383 95-7 16.136-1.617 11.068-.309 46 1l-40 219H0Z" fill="url(#g)"/><path d="M0 436c30.896 4.086 61.791 8.171 100 4 38.209-4.171 83.73-16.6 123-15 39.27 1.6 72.289 17.225 110 21 37.711 3.775 80.114-4.302 114-10 33.886-5.698 59.255-9.02 96-12 36.745-2.98 84.865-5.622 123 0 38.135 5.622 66.284 19.507 103 19 36.716-.507 82-15.406 123-17 41-1.594 77.714 10.116 95 14 17.286 3.884 15.143-.058 53-4l-40 164H0Z" fill="url(#h)"/><path d="M0 490c30.672-4.266 61.345-8.532 99-10s82.293-.138 122-1c39.707-.862 74.483-3.917 113 1 38.517 4.917 80.773 17.806 117 18 36.227.194 66.423-12.306 99-15 32.577-2.694 67.536 4.42 105 9s77.434 6.63 116 8 75.73 2.061 116-2c40.27-4.061 83.649-12.875 103-15s14.676 2.437 50 7l-40 110H0Z" fill="url(#i)"/><path d="M0 545c40.226-.755 80.452-1.51 119-4s75.42-6.717 112-6c36.58.717 72.87 6.378 108 11 35.13 4.622 69.099 8.206 105 9 35.901.794 73.734-1.201 107 0 33.266 1.201 61.966 5.598 104 2s97.4-15.191 135-19c37.6-3.809 57.43.167 98 0s101.877-4.476 124-4c22.123.476 5.062 5.738 28 11l-40 55H0Z" fill="url(#j)"/></svg>